<svg width="16" height="17" viewBox="0 0 16 17" fill="none" xmlns="http://www.w3.org/2000/svg">
<path d="M2.16226 3.19238C1.88075 3.19238 1.61077 3.30421 1.41172 3.50326C1.21266 3.70232 1.10083 3.9723 1.10083 4.25381V14.3374C1.10083 14.6189 1.21266 14.8889 1.41172 15.0879C1.61077 15.2869 1.88075 15.3988 2.16226 15.3988H13.838C14.1195 15.3988 14.3895 15.2869 14.5885 15.0879C14.7875 14.8889 14.8994 14.6189 14.8994 14.3374V4.25381C14.8994 3.9723 14.7875 3.70232 14.5885 3.50326C14.3895 3.30421 14.1195 3.19238 13.838 3.19238H11.7151" stroke="#ADADAD" stroke-width="1.14" stroke-linecap="round" stroke-linejoin="round"/>
<path d="M1.10083 6.9082H14.8994" stroke="#ADADAD" stroke-width="1.14" stroke-linecap="round" stroke-linejoin="round"/>
<path d="M4.28516 1.60059V4.78487" stroke="#ADADAD" stroke-width="1.14" stroke-linecap="round" stroke-linejoin="round"/>
<path d="M11.7151 1.60059V4.78487" stroke="#ADADAD" stroke-width="1.14" stroke-linecap="round" stroke-linejoin="round"/>
<path d="M4.28516 3.19238H9.5923" stroke="#ADADAD" stroke-width="1.14" stroke-linecap="round" stroke-linejoin="round"/>
</svg>
