<svg width="20" height="20" viewBox="0 0 20 20" fill="none" xmlns="http://www.w3.org/2000/svg">
<path d="M2.04102 5.35742H17.9582" stroke="#FBFBFB" stroke-width="1.43" stroke-linecap="round" stroke-linejoin="round"/>
<path d="M4.03027 5.35742H15.9681V17.2953C15.9681 17.647 15.8283 17.9845 15.5796 18.2332C15.3309 18.4819 14.9935 18.6217 14.6417 18.6217H5.3567C5.00491 18.6217 4.66753 18.4819 4.41877 18.2332C4.17003 17.9845 4.03027 17.647 4.03027 17.2953V5.35742Z" stroke="#FBFBFB" stroke-width="1.43" stroke-linecap="round" stroke-linejoin="round"/>
<path d="M6.68359 5.35722V4.694C6.68359 3.81453 7.03296 2.97106 7.65484 2.34918C8.27673 1.7273 9.12019 1.37793 9.99967 1.37793C10.8791 1.37793 11.7226 1.7273 12.3445 2.34918C12.9664 2.97106 13.3157 3.81453 13.3157 4.694V5.35722" stroke="#FBFBFB" stroke-width="1.43" stroke-linecap="round" stroke-linejoin="round"/>
<path d="M8.00977 9.33887V14.6466" stroke="#FBFBFB" stroke-width="1.43" stroke-linecap="round" stroke-linejoin="round"/>
<path d="M11.9893 9.33887V14.6466" stroke="#FBFBFB" stroke-width="1.43" stroke-linecap="round" stroke-linejoin="round"/>
</svg>
