<svg width="16" height="17" viewBox="0 0 16 17" fill="none" xmlns="http://www.w3.org/2000/svg">
<path d="M12.7765 6.37701C12.7765 9.5613 8.00006 13.2763 8.00006 13.2763C8.00006 13.2763 3.22363 9.5613 3.22363 6.37701C3.22363 3.77545 5.3985 1.60059 8.00006 1.60059C10.6016 1.60059 12.7765 3.77545 12.7765 6.37701Z" stroke="#ADADAD" stroke-width="1.14" stroke-linecap="round" stroke-linejoin="round"/>
<path d="M8.0001 7.96944C8.87942 7.96944 9.59224 7.25662 9.59224 6.3773C9.59224 5.49798 8.87942 4.78516 8.0001 4.78516C7.12078 4.78516 6.40796 5.49798 6.40796 6.3773C6.40796 7.25662 7.12078 7.96944 8.0001 7.96944Z" stroke="#ADADAD" stroke-width="1.14" stroke-linecap="round" stroke-linejoin="round"/>
<path d="M12.3279 11.6846H13.3073L14.8994 15.3996H1.10083L2.69297 11.6846H3.67235" stroke="#ADADAD" stroke-width="1.14" stroke-linecap="round" stroke-linejoin="round"/>
</svg>
