<svg width="16" height="16" viewBox="0 0 16 16" fill="none" xmlns="http://www.w3.org/2000/svg">
<g clip-path="url(#clip0_793_468)">
<path d="M6.29482 15.7455C6.28165 15.7593 6.26969 15.7719 6.25971 15.7813C5.66006 15.8776 5.44968 15.5555 5.26405 15.2235C5.246 15.1925 5.22003 15.1646 5.19405 15.1368C5.1551 15.095 5.11614 15.0532 5.1039 15.0007C5.05337 14.7841 4.9258 14.6248 4.79914 14.4666C4.65749 14.2898 4.51697 14.1143 4.48658 13.8616C4.34248 13.8236 4.30698 13.7004 4.27148 13.5772C4.23598 13.454 4.20049 13.3307 4.05638 13.2928C3.92346 13.0361 3.75019 12.8095 3.57627 12.5821C3.42823 12.3885 3.27971 12.1942 3.1552 11.9803C2.83417 11.4157 2.46875 10.8926 2.10333 10.3696C1.96516 10.1592 1.81948 9.9559 1.67419 9.75312C1.46659 9.46336 1.2598 9.17474 1.07694 8.86828C0.962153 8.69696 0.868962 8.50955 0.776348 8.3233C0.634607 8.03825 0.494215 7.75592 0.279825 7.53812C0.1886 7.42921 0.156751 7.28871 0.125917 7.15269C0.0807232 6.95334 0.0377169 6.76362 -0.186806 6.69714C-0.141221 6.58334 -0.113101 6.49774 -0.0849749 6.41216C-0.0709114 6.36937 -0.0568485 6.32657 -0.0406007 6.28024L0.287641 6.41188C0.319282 6.3156 0.343463 6.21632 0.367641 6.11704C0.391822 6.01776 0.416005 5.91849 0.447647 5.8222L0.746048 5.94187C0.810078 5.86848 0.87411 5.79509 0.918496 5.75345C1.12663 5.71804 1.31002 5.69251 1.52325 5.67896C1.98104 5.90218 2.21181 6.31174 2.22934 6.73486C2.32829 6.91845 2.48932 6.99362 2.64242 7.06508C2.78443 7.13137 2.91962 7.19448 2.99213 7.33797C3.0926 7.53677 3.23252 7.69855 3.37243 7.86034C3.44239 7.94123 3.51235 8.02212 3.57737 8.10764C3.54319 8.193 3.5039 8.25649 3.48425 8.28824C3.83941 8.32488 3.98796 8.56673 4.1378 8.81066C4.26859 9.0236 4.40037 9.23812 4.6714 9.31911C4.40253 9.639 4.5464 9.76499 4.69158 9.89214C4.77507 9.96526 4.85899 10.0388 4.86512 10.1497C4.87967 10.0961 4.8893 10.0504 4.89894 10.0048C4.90857 9.95909 4.91821 9.91342 4.93275 9.85982C5.10256 9.94022 5.07594 10.0715 5.05164 10.1914C5.03678 10.2648 5.02278 10.3339 5.0551 10.3844C5.20972 10.5995 5.35198 10.8096 5.49915 11.0269C5.58062 11.1472 5.66359 11.2698 5.751 11.3966L6.04791 11.2779C6.15514 11.485 6.30175 11.6627 6.44728 11.839C6.6357 12.0674 6.8223 12.2936 6.91925 12.5784C6.85522 12.6518 6.78609 12.7033 6.69222 12.7647C6.87201 12.9557 7.01685 13.1129 7.1668 13.2919C7.27442 13.0578 7.36751 12.8773 7.4606 12.6967C7.49548 12.6291 7.53816 12.5614 7.58106 12.4935C7.65267 12.3801 7.72525 12.2652 7.76483 12.1448C7.8866 11.696 8.1196 11.2725 8.34916 10.8553C8.44865 10.6745 8.5475 10.4948 8.63637 10.3148C8.90303 9.80827 9.22881 9.31156 9.54973 8.82225C9.61231 8.72684 9.6747 8.63171 9.73644 8.53684C9.7827 8.47065 9.82572 8.39993 9.8694 8.32809C9.97892 8.14801 10.0927 7.96093 10.2727 7.82066C10.3122 7.79121 10.3598 7.75853 10.4073 7.72585C10.5263 7.64416 10.6452 7.56247 10.638 7.53125C10.6058 7.39355 10.6962 7.32069 10.7858 7.24841C10.8385 7.20596 10.8909 7.1637 10.9181 7.10862C11.0088 6.94142 11.151 6.83208 11.2887 6.72626C11.3521 6.67759 11.4144 6.62966 11.4703 6.57719C11.7174 6.35409 12.0029 6.24702 12.2853 6.14113C12.4371 6.0842 12.588 6.02763 12.7314 5.95356C12.7911 5.97749 12.8495 5.99596 12.9079 6.01443C12.9663 6.03289 13.0247 6.05136 13.0844 6.07529L13.9999 5.70932C14.1624 5.78772 14.303 5.8749 14.4435 5.9621C14.5138 6.00569 14.5841 6.04929 14.6571 6.09178C14.5305 6.47692 14.3639 6.80638 14.0532 7.09786C14.0258 7.08685 14.0084 7.0538 13.9905 7.01956C13.9499 6.94218 13.9062 6.85875 13.7352 7.00994L13.7068 7.23634C13.6292 7.26736 13.553 7.30436 13.4803 7.33967C13.4139 7.37191 13.3504 7.40274 13.2913 7.42634C13.2426 7.56532 13.1913 7.69337 13.1443 7.81074C13.0973 7.92809 13.0545 8.03478 13.0229 8.13105L12.6234 8.50582C12.6206 8.54188 12.6185 8.57655 12.6166 8.60972C12.6093 8.73548 12.6032 8.83952 12.5565 8.91489C12.4045 9.19075 12.2524 9.4666 12.1302 9.75441C12.0476 9.92181 11.9447 10.0839 11.8415 10.2465C11.6693 10.5177 11.4962 10.7904 11.4143 11.092C11.2066 11.187 11.1469 11.3662 11.0873 11.5454C11.0276 11.7245 10.968 11.9037 10.7602 11.9987C10.5896 12.6277 10.1245 13.1174 9.66335 13.603C9.49569 13.7795 9.32856 13.9555 9.17628 14.1374C8.89702 14.5019 8.46555 14.7503 8.07233 14.9768C8.05677 14.9857 8.04127 14.9946 8.02584 15.0035C7.97477 15.0337 7.92355 15.0645 7.87212 15.0954C7.42094 15.3663 6.95454 15.6463 6.44235 15.6366C6.40004 15.635 6.34025 15.6978 6.29482 15.7455Z" fill="white"/>
</g>
<defs>
<clipPath id="clip0_793_468">
<rect width="16" height="16" fill="white"/>
</clipPath>
</defs>
</svg>
