<svg width="36" height="36" viewBox="0 0 36 36" fill="none" xmlns="http://www.w3.org/2000/svg">
<path d="M7.25472 33.3297C9.89227 33.3297 12.0304 31.1916 12.0304 28.554C12.0304 25.9166 9.89227 23.7783 7.25472 23.7783C4.61716 23.7783 2.479 25.9166 2.479 28.554C2.479 31.1916 4.61716 33.3297 7.25472 33.3297Z" stroke="white" stroke-width="2.57" stroke-linecap="round" stroke-linejoin="round"/>
<path d="M28.7454 27.36C31.3831 27.36 33.5212 25.2219 33.5212 22.5843C33.5212 19.9468 31.3831 17.8086 28.7454 17.8086C26.1078 17.8086 23.9697 19.9468 23.9697 22.5843C23.9697 25.2219 26.1078 27.36 28.7454 27.36Z" stroke="white" stroke-width="2.57" stroke-linecap="round" stroke-linejoin="round"/>
<path d="M33.5212 22.5848V3.86399C33.5203 3.6813 33.4773 3.50129 33.3956 3.3378C33.3142 3.17431 33.1962 3.03172 33.0508 2.921C32.9056 2.81028 32.7368 2.73438 32.5575 2.69916C32.3782 2.66394 32.1933 2.67032 32.0169 2.71782L12.914 8.01886C12.6616 8.08685 12.4384 8.23578 12.2788 8.44283C12.1192 8.6499 12.032 8.90361 12.0305 9.16503V28.5545" stroke="white" stroke-width="2.57" stroke-linecap="round" stroke-linejoin="round"/>
<path d="M12.0305 15.4208L33.5212 9.45117" stroke="white" stroke-width="2.57" stroke-linecap="round" stroke-linejoin="round"/>
</svg>
