<svg width="20" height="20" viewBox="0 0 20 20" fill="none" xmlns="http://www.w3.org/2000/svg">
<g clip-path="url(#clip0_1278_8931)">
<path d="M9.99971 18.6215C14.7615 18.6215 18.6215 14.7615 18.6215 9.99971C18.6215 5.23804 14.7615 1.37793 9.99971 1.37793C5.23804 1.37793 1.37793 5.23804 1.37793 9.99971C1.37793 14.7615 5.23804 18.6215 9.99971 18.6215Z" stroke="#FBFBFB" stroke-width="1.43" stroke-linecap="round" stroke-linejoin="round"/>
<path d="M6.68359 13.3157L13.3157 6.68359" stroke="#FBFBFB" stroke-width="1.43" stroke-linecap="round" stroke-linejoin="round"/>
<path d="M7.34681 8.01002C7.71309 8.01002 8.01002 7.71309 8.01002 7.34681C8.01002 6.98053 7.71309 6.68359 7.34681 6.68359C6.98053 6.68359 6.68359 6.98053 6.68359 7.34681C6.68359 7.71309 6.98053 8.01002 7.34681 8.01002Z" stroke="#FBFBFB" stroke-width="1.43" stroke-linecap="round" stroke-linejoin="round"/>
<path d="M12.6525 13.3157C13.0188 13.3157 13.3157 13.0188 13.3157 12.6525C13.3157 12.2862 13.0188 11.9893 12.6525 11.9893C12.2862 11.9893 11.9893 12.2862 11.9893 12.6525C11.9893 13.0188 12.2862 13.3157 12.6525 13.3157Z" stroke="#FBFBFB" stroke-width="1.43" stroke-linecap="round" stroke-linejoin="round"/>
</g>
<defs>
<clipPath id="clip0_1278_8931">
<rect width="20" height="20" fill="white"/>
</clipPath>
</defs>
</svg>
