<svg width="16" height="14" viewBox="0 0 16 14" fill="none" xmlns="http://www.w3.org/2000/svg">
<path d="M11.5263 14C10.9415 13.8456 10.4503 13.5903 10.0526 13.2341C9.65497 12.8779 9.33333 12.4741 9.08772 12.0229C8.8421 11.5598 8.66667 11.0729 8.5614 10.5623C8.45614 10.0517 8.40351 9.55301 8.40351 9.06616C8.40351 8.25869 8.49708 7.50467 8.68421 6.80407C8.88304 6.10348 9.1462 5.45632 9.47369 4.8626C9.81287 4.26887 10.2047 3.72265 10.6491 3.22392C11.0936 2.72519 11.5673 2.27396 12.0702 1.87023C12.5848 1.4665 13.1111 1.11026 13.6491 0.801527C14.1988 0.492791 14.7368 0.225615 15.2632 0L16 1.26463L15.9649 1.65649C15.5088 1.81086 15.0585 2.08991 14.614 2.49364C14.1696 2.8855 13.7719 3.3486 13.4211 3.88295C13.0702 4.4173 12.7895 5.00509 12.5789 5.64631C12.3684 6.27566 12.2632 6.89907 12.2632 7.51654C12.2632 7.89652 12.3099 8.26463 12.4035 8.62086C12.5088 8.9771 12.6433 9.29177 12.807 9.56489C12.9825 9.838 13.1871 10.0636 13.4211 10.2417C13.655 10.4198 13.9123 10.5267 14.193 10.5623L14.1053 11.2926L11.5263 14ZM3.12281 14C2.53801 13.8456 2.04678 13.5903 1.64912 13.2341C1.25146 12.8779 0.929824 12.4741 0.68421 12.0229C0.438596 11.5598 0.263158 11.0729 0.157895 10.5623C0.0526318 10.0517 0 9.55301 0 9.06616C0 8.25869 0.0935673 7.50467 0.280702 6.80407C0.479532 6.10348 0.74269 5.45632 1.07018 4.8626C1.40936 4.26887 1.80117 3.72265 2.24561 3.22392C2.69006 2.72519 3.16374 2.27396 3.66667 1.87023C4.18129 1.4665 4.7076 1.11026 5.24561 0.801527C5.79532 0.492791 6.33333 0.225615 6.85965 0L7.59649 1.26463L7.5614 1.65649C7.10526 1.81086 6.65497 2.08991 6.21053 2.49364C5.76608 2.8855 5.36842 3.3486 5.01754 3.88295C4.66667 4.4173 4.38597 5.00509 4.17544 5.64631C3.96491 6.27566 3.85965 6.89907 3.85965 7.51654C3.85965 7.89652 3.90643 8.26463 4 8.62086C4.10526 8.9771 4.23977 9.29177 4.40351 9.56489C4.57895 9.838 4.78363 10.0636 5.01754 10.2417C5.25146 10.4198 5.50877 10.5267 5.78947 10.5623L5.70176 11.2926L3.12281 14Z" fill="#6E3AFF"/>
</svg>
