<svg width="20" height="20" viewBox="0 0 20 20" fill="none" xmlns="http://www.w3.org/2000/svg">
<path d="M17.5947 17.2974C17.5947 17.6493 17.4549 17.9868 17.2061 18.2356C16.9572 18.4843 16.6198 18.6242 16.2679 18.6242H4.32679C3.9749 18.6242 3.63743 18.4843 3.3886 18.2356C3.13979 17.9868 3 17.6493 3 17.2974V2.70276C3 2.35087 3.13979 2.0134 3.3886 1.76458C3.63743 1.51576 3.9749 1.37598 4.32679 1.37598H11.7379C12.0898 1.37598 12.4273 1.51576 12.6761 1.76458L17.2061 6.29452C17.4549 6.54333 17.5947 6.88081 17.5947 7.23269V17.2974Z" stroke="#FBFBFB" stroke-width="1.43" stroke-linecap="round" stroke-linejoin="round"/>
<path d="M11.0381 9.1709H14.3551" stroke="#FBFBFB" stroke-width="1.43" stroke-linecap="round" stroke-linejoin="round"/>
<path d="M11.0381 13.7734H14.3551" stroke="#FBFBFB" stroke-width="1.43" stroke-linecap="round" stroke-linejoin="round"/>
<path d="M5.90723 13.6981L7.01893 14.8098L8.87176 12.2158" stroke="#FBFBFB" stroke-width="1.43" stroke-linecap="round" stroke-linejoin="round"/>
<path d="M5.90723 9.01255L7.01893 10.1242L8.87176 7.53027" stroke="#FBFBFB" stroke-width="1.43" stroke-linecap="round" stroke-linejoin="round"/>
</svg>
