<svg width="16" height="17" viewBox="0 0 16 17" fill="none" xmlns="http://www.w3.org/2000/svg">
<path d="M1.53198 12.4061C1.53198 12.9923 2.00721 13.4675 2.59341 13.4675H13.4068C13.9929 13.4675 14.4682 12.9923 14.4682 12.4061V10.4534C13.6081 10.2202 12.9755 9.43417 12.9755 8.50036C12.9755 7.56655 13.6081 6.78047 14.4682 6.54733V4.59463C14.4682 4.00843 13.9929 3.5332 13.4068 3.5332H2.59341C2.00721 3.5332 1.53198 4.00843 1.53198 4.59463V6.5429C2.40045 6.77039 3.0412 7.56055 3.0412 8.50036C3.0412 9.44017 2.40045 10.2303 1.53198 10.4578V12.4061Z" stroke="#ADADAD" stroke-width="1.14" stroke-linecap="round" stroke-linejoin="round"/>
<path d="M10.239 3.54102V5.28243" stroke="#ADADAD" stroke-width="1.14" stroke-linecap="round" stroke-linejoin="round"/>
<path d="M10.239 7.62988V9.37128" stroke="#ADADAD" stroke-width="1.14" stroke-linecap="round" stroke-linejoin="round"/>
<path d="M10.239 11.7266V13.4679" stroke="#ADADAD" stroke-width="1.14" stroke-linecap="round" stroke-linejoin="round"/>
</svg>
