<svg width="36" height="36" viewBox="0 0 36 36" fill="none" xmlns="http://www.w3.org/2000/svg">
<path d="M12.4037 6.66895L11.4724 6.88385C11.5567 7.25089 11.5673 7.63104 11.5034 8.00218C11.4395 8.37333 11.3025 8.72807 11.1003 9.04579C10.8981 9.36352 10.6348 9.63789 10.3257 9.85294C10.0165 10.068 9.66766 10.2195 9.29945 10.2985C8.55279 10.4556 7.77433 10.3134 7.13135 9.90263C6.48837 9.49185 6.03222 8.84519 5.86094 8.10166L3.99841 8.48372C3.74298 8.53945 3.50151 8.64638 3.28858 8.79805C3.07564 8.94973 2.89567 9.143 2.75952 9.3662C2.62338 9.58939 2.5339 9.83785 2.49648 10.0966C2.45906 10.3553 2.47448 10.619 2.54181 10.8716C2.54181 10.8716 3.40144 14.8593 4.40434 19.3485" stroke="white" stroke-width="2.57" stroke-linecap="round" stroke-linejoin="round"/>
<path d="M30.3127 6.64529C30.1702 7.04736 29.9471 7.41629 29.6577 7.72969C29.3683 8.0431 29.0183 8.29449 28.6288 8.46861C28.2394 8.64274 27.8184 8.73598 27.3919 8.74269C26.9652 8.7494 26.5418 8.66943 26.1471 8.50763C25.7522 8.34585 25.3945 8.10559 25.0952 7.80145C24.796 7.49728 24.5617 7.13557 24.4065 6.73818C24.2512 6.3408 24.1782 5.91602 24.192 5.48962C24.2057 5.0632 24.3059 4.64401 24.4864 4.25744L22.5522 3.35005C22.0357 3.13482 21.4552 3.13194 20.9367 3.34206C20.4181 3.55217 20.0033 3.95831 19.7823 4.47234L11.7591 23.3603L10.7084 25.7482C10.4932 26.2647 10.4903 26.8452 10.7004 27.3636C10.9106 27.8823 11.3167 28.297 11.8307 28.5181L21.5254 32.6491C22.0419 32.8643 22.6224 32.8671 23.141 32.657C23.6596 32.4469 24.0744 32.0407 24.2954 31.5268L33.3692 10.1793C33.5693 9.68291 33.5748 9.12929 33.3842 8.62908C33.1939 8.12885 32.8219 7.71888 32.3424 7.48104L30.3127 6.64529Z" stroke="white" stroke-width="2.57" stroke-linecap="round" stroke-linejoin="round"/>
</svg>
