<svg width="107" height="33" viewBox="0 0 107 33" fill="none" xmlns="http://www.w3.org/2000/svg">
<g clip-path="url(#clip0_477_1607)">
<mask id="mask0_477_1607" style="mask-type:luminance" maskUnits="userSpaceOnUse" x="0" y="0" width="107" height="33">
<path d="M107 0H0V33H107V0Z" fill="white"/>
</mask>
<g mask="url(#mask0_477_1607)">
<path d="M19.988 9.79004C21.092 9.79004 22.052 10.024 22.868 10.492C23.696 10.96 24.338 11.68 24.794 12.652C25.262 13.612 25.496 14.848 25.496 16.36V25H20.996V17.098C20.996 15.85 20.81 14.878 20.438 14.182C20.078 13.486 19.388 13.138 18.368 13.138C17.792 13.138 17.264 13.294 16.784 13.606C16.304 13.906 15.92 14.35 15.632 14.938C15.356 15.526 15.218 16.246 15.218 17.098V25H11.006V17.098C11.006 15.85 10.796 14.878 10.376 14.182C9.95603 13.486 9.29003 13.138 8.37803 13.138C7.79003 13.138 7.25603 13.288 6.77603 13.588C6.30803 13.888 5.93603 14.332 5.66003 14.92C5.39603 15.496 5.26403 16.222 5.26403 17.098V25H0.728027V10.222H5.26403V12.382C5.39603 12.01 5.69603 11.626 6.16403 11.23C6.64403 10.834 7.23803 10.498 7.94603 10.222C8.65403 9.93404 9.41603 9.79004 10.232 9.79004C11.12 9.79004 11.858 9.94004 12.446 10.24C13.034 10.54 13.508 10.924 13.868 11.392C14.24 11.848 14.522 12.328 14.714 12.832C14.882 12.364 15.212 11.896 15.704 11.428C16.196 10.96 16.814 10.57 17.558 10.258C18.302 9.94604 19.112 9.79004 19.988 9.79004ZM30.5374 17.296C30.5374 18.616 30.8014 19.672 31.3294 20.464C31.8574 21.244 32.7094 21.634 33.8854 21.634C35.0734 21.634 35.9314 21.244 36.4594 20.464C36.9874 19.672 37.2514 18.616 37.2514 17.296V10.222H41.7514V17.818C41.7514 19.342 41.4454 20.68 40.8334 21.832C40.2214 22.972 39.3274 23.86 38.1514 24.496C36.9874 25.12 35.5654 25.432 33.8854 25.432C32.2174 25.432 30.7954 25.12 29.6194 24.496C28.4554 23.86 27.5674 22.972 26.9554 21.832C26.3434 20.68 26.0374 19.342 26.0374 17.818V10.222H30.5374V17.296ZM48.6724 9.79004C49.5604 9.79004 50.3824 9.87404 51.1384 10.042C51.8944 10.198 52.5304 10.378 53.0464 10.582C53.5744 10.786 53.9224 10.96 54.0904 11.104L52.5244 13.858C52.2844 13.666 51.8524 13.438 51.2284 13.174C50.6164 12.91 49.9324 12.778 49.1764 12.778C48.4924 12.778 47.9164 12.898 47.4484 13.138C46.9804 13.366 46.7464 13.714 46.7464 14.182C46.7464 14.65 46.9984 15.022 47.5024 15.298C48.0064 15.574 48.7084 15.814 49.6084 16.018C50.3644 16.174 51.1084 16.414 51.8404 16.738C52.5724 17.05 53.1784 17.506 53.6584 18.106C54.1384 18.694 54.3784 19.48 54.3784 20.464C54.3784 21.436 54.1684 22.246 53.7484 22.894C53.3404 23.53 52.7944 24.034 52.1104 24.406C51.4264 24.778 50.6764 25.042 49.8604 25.198C49.0444 25.354 48.2344 25.432 47.4304 25.432C46.3864 25.432 45.4684 25.33 44.6764 25.126C43.8844 24.934 43.2304 24.712 42.7144 24.46C42.2104 24.196 41.8504 23.974 41.6344 23.794L43.2004 20.734C43.5124 21.01 44.0224 21.316 44.7304 21.652C45.4504 21.976 46.2244 22.138 47.0524 22.138C47.9164 22.138 48.5944 21.988 49.0864 21.688C49.5904 21.388 49.8424 20.986 49.8424 20.482C49.8424 20.11 49.7224 19.81 49.4824 19.582C49.2424 19.342 48.9124 19.144 48.4924 18.988C48.0724 18.832 47.5804 18.694 47.0164 18.574C46.5004 18.466 45.9724 18.31 45.4324 18.106C44.8924 17.89 44.3884 17.608 43.9204 17.26C43.4524 16.912 43.0744 16.48 42.7864 15.964C42.4984 15.436 42.3544 14.806 42.3544 14.074C42.3544 13.138 42.6544 12.358 43.2544 11.734C43.8544 11.098 44.6344 10.618 45.5944 10.294C46.5544 9.95804 47.5804 9.79004 48.6724 9.79004ZM58.1016 18.628C58.1376 19.3 58.3176 19.9 58.6416 20.428C58.9656 20.956 59.4336 21.37 60.0456 21.67C60.6696 21.97 61.4136 22.12 62.2776 22.12C63.0576 22.12 63.7416 22.024 64.3296 21.832C64.9296 21.64 65.4336 21.406 65.8416 21.13C66.2616 20.842 66.5736 20.566 66.7776 20.302L68.6676 23.11C68.3316 23.53 67.8816 23.92 67.3176 24.28C66.7656 24.628 66.0576 24.904 65.1936 25.108C64.3416 25.324 63.2736 25.432 61.9896 25.432C60.3696 25.432 58.9476 25.114 57.7236 24.478C56.4996 23.842 55.5456 22.924 54.8616 21.724C54.1776 20.524 53.8356 19.096 53.8356 17.44C53.8356 16 54.1416 14.704 54.7536 13.552C55.3656 12.388 56.2536 11.47 57.4176 10.798C58.5936 10.126 60.0036 9.79004 61.6476 9.79004C63.1956 9.79004 64.5336 10.09 65.6616 10.69C66.8016 11.278 67.6836 12.142 68.3076 13.282C68.9316 14.422 69.2436 15.814 69.2436 17.458C69.2436 17.554 69.2376 17.752 69.2256 18.052C69.2256 18.34 69.2136 18.532 69.1896 18.628H58.1016ZM64.9596 15.802C64.9476 15.418 64.8276 15.004 64.5996 14.56C64.3836 14.116 64.0416 13.738 63.5736 13.426C63.1056 13.114 62.4816 12.958 61.7016 12.958C60.9216 12.958 60.2796 13.108 59.7756 13.408C59.2836 13.708 58.9116 14.08 58.6596 14.524C58.4076 14.956 58.2636 15.382 58.2276 15.802H64.9596ZM68.0469 10.222H72.9429L76.9929 20.824L81.0429 10.222H85.9209L79.6749 25H74.3109L68.0469 10.222ZM88.9392 18.628C88.9752 19.3 89.1552 19.9 89.4792 20.428C89.8032 20.956 90.2712 21.37 90.8832 21.67C91.5072 21.97 92.2512 22.12 93.1152 22.12C93.8952 22.12 94.5792 22.024 95.1672 21.832C95.7672 21.64 96.2712 21.406 96.6792 21.13C97.0992 20.842 97.4112 20.566 97.6152 20.302L99.5052 23.11C99.1692 23.53 98.7192 23.92 98.1552 24.28C97.6032 24.628 96.8952 24.904 96.0312 25.108C95.1792 25.324 94.1112 25.432 92.8272 25.432C91.2072 25.432 89.7852 25.114 88.5612 24.478C87.3372 23.842 86.3832 22.924 85.6992 21.724C85.0152 20.524 84.6732 19.096 84.6732 17.44C84.6732 16 84.9792 14.704 85.5912 13.552C86.2032 12.388 87.0912 11.47 88.2552 10.798C89.4312 10.126 90.8412 9.79004 92.4852 9.79004C94.0332 9.79004 95.3712 10.09 96.4992 10.69C97.6392 11.278 98.5212 12.142 99.1452 13.282C99.7692 14.422 100.081 15.814 100.081 17.458C100.081 17.554 100.075 17.752 100.063 18.052C100.063 18.34 100.051 18.532 100.027 18.628H88.9392ZM95.7972 15.802C95.7852 15.418 95.6652 15.004 95.4372 14.56C95.2212 14.116 94.8792 13.738 94.4112 13.426C93.9432 13.114 93.3192 12.958 92.5392 12.958C91.7592 12.958 91.1172 13.108 90.6132 13.408C90.1212 13.708 89.7492 14.08 89.4972 14.524C89.2452 14.956 89.1012 15.382 89.0652 15.802H95.7972ZM103.817 25.432C103.013 25.432 102.323 25.144 101.747 24.568C101.171 23.992 100.883 23.302 100.883 22.498C100.883 21.67 101.171 20.968 101.747 20.392C102.323 19.816 103.013 19.528 103.817 19.528C104.645 19.528 105.341 19.816 105.905 20.392C106.481 20.968 106.769 21.67 106.769 22.498C106.769 23.302 106.481 23.992 105.905 24.568C105.341 25.144 104.645 25.432 103.817 25.432Z" fill="white"/>
</g>
</g>
<defs>
<clipPath id="clip0_477_1607">
<rect width="107" height="33" fill="white"/>
</clipPath>
</defs>
</svg>
