<svg width="117" height="26" viewBox="0 0 117 26" fill="none" xmlns="http://www.w3.org/2000/svg">
<path d="M6.48689 21.0417C5.31284 21.0417 4.18132 20.9056 3.09234 20.6334C2.02037 20.3441 1.16961 19.9868 0.540039 19.5614L1.86723 16.7028C2.4968 17.0942 3.23697 17.4175 4.08773 17.6727C4.95551 17.9109 5.80628 18.03 6.64003 18.03C7.55886 18.03 8.20544 17.9194 8.57978 17.6982C8.97113 17.477 9.16681 17.1708 9.16681 16.7794C9.16681 16.4561 9.01367 16.2179 8.70739 16.0648C8.41813 15.8946 8.02678 15.767 7.53333 15.6819C7.03989 15.5968 6.4954 15.5118 5.89986 15.4267C5.32134 15.3416 4.73432 15.231 4.13878 15.0949C3.54324 14.9418 2.99875 14.7206 2.50531 14.4313C2.01186 14.142 1.612 13.7507 1.30573 13.2572C1.01647 12.7638 0.871838 12.1257 0.871838 11.343C0.871838 10.4752 1.11856 9.70954 1.612 9.04595C2.12246 8.38235 2.85412 7.86338 3.80698 7.48904C4.75984 7.09769 5.89986 6.90202 7.22706 6.90202C8.1629 6.90202 9.11576 7.00411 10.0856 7.20829C11.0555 7.41247 11.8637 7.71024 12.5103 8.10159L11.1831 10.9346C10.5195 10.5433 9.84742 10.2796 9.16681 10.1434C8.50321 9.99029 7.85663 9.91373 7.22706 9.91373C6.34226 9.91373 5.69568 10.0328 5.28731 10.271C4.87895 10.5093 4.67476 10.8155 4.67476 11.1899C4.67476 11.5302 4.81939 11.7854 5.10865 11.9556C5.41493 12.1257 5.81479 12.2618 6.30823 12.3639C6.80168 12.466 7.33766 12.5596 7.91618 12.6447C8.51172 12.7127 9.10725 12.8233 9.70279 12.9765C10.2983 13.1296 10.8343 13.3508 11.3107 13.6401C11.8042 13.9123 12.204 14.2952 12.5103 14.7886C12.8166 15.265 12.9697 15.8946 12.9697 16.6773C12.9697 17.5281 12.7145 18.2853 12.204 18.9489C11.6936 19.5954 10.9534 20.1059 9.98354 20.4802C9.03068 20.8546 7.86513 21.0417 6.48689 21.0417Z" fill="white"/>
<path d="M22.5973 21.0417C21.4403 21.0417 20.4279 20.7865 19.5601 20.2761C18.6923 19.7656 18.0117 18.9914 17.5183 17.9535C17.0418 16.8985 16.8036 15.5713 16.8036 13.9719C16.8036 12.3554 17.0333 11.0282 17.4927 9.99029C17.9521 8.95236 18.6157 8.17816 19.4835 7.6677C20.3513 7.15724 21.3892 6.90202 22.5973 6.90202C23.8905 6.90202 25.0475 7.19978 26.0685 7.79532C27.1064 8.37384 27.9231 9.19057 28.5187 10.2455C29.1312 11.3005 29.4375 12.5426 29.4375 13.9719C29.4375 15.4182 29.1312 16.6688 28.5187 17.7238C27.9231 18.7787 27.1064 19.5954 26.0685 20.174C25.0475 20.7525 23.8905 21.0417 22.5973 21.0417ZM14.481 25.789V7.1062H18.2839V9.91373L18.2074 13.9974L18.4626 18.0556V25.789H14.481ZM21.9082 17.7748C22.5718 17.7748 23.1588 17.6217 23.6693 17.3154C24.1968 17.0091 24.6136 16.5752 24.9199 16.0137C25.2432 15.4352 25.4049 14.7546 25.4049 13.9719C25.4049 13.1722 25.2432 12.4915 24.9199 11.93C24.6136 11.3685 24.1968 10.9346 23.6693 10.6284C23.1588 10.3221 22.5718 10.169 21.9082 10.169C21.2446 10.169 20.6491 10.3221 20.1216 10.6284C19.5941 10.9346 19.1772 11.3685 18.871 11.93C18.5647 12.4915 18.4116 13.1722 18.4116 13.9719C18.4116 14.7546 18.5647 15.4352 18.871 16.0137C19.1772 16.5752 19.5941 17.0091 20.1216 17.3154C20.6491 17.6217 21.2446 17.7748 21.9082 17.7748Z" fill="white"/>
<path d="M37.6914 21.0417C36.2281 21.0417 34.9264 20.7355 33.7864 20.1229C32.6634 19.5104 31.7701 18.6766 31.1065 17.6217C30.4599 16.5497 30.1366 15.3331 30.1366 13.9719C30.1366 12.5936 30.4599 11.377 31.1065 10.3221C31.7701 9.25013 32.6634 8.41638 33.7864 7.82084C34.9264 7.20829 36.2281 6.90202 37.6914 6.90202C39.1377 6.90202 40.4309 7.20829 41.5709 7.82084C42.7109 8.41638 43.6043 9.24162 44.2508 10.2966C44.8974 11.3515 45.2207 12.5766 45.2207 13.9719C45.2207 15.3331 44.8974 16.5497 44.2508 17.6217C43.6043 18.6766 42.7109 19.5104 41.5709 20.1229C40.4309 20.7355 39.1377 21.0417 37.6914 21.0417ZM37.6914 17.7748C38.355 17.7748 38.9506 17.6217 39.478 17.3154C40.0055 17.0091 40.4224 16.5752 40.7287 16.0137C41.0349 15.4352 41.1881 14.7546 41.1881 13.9719C41.1881 13.1722 41.0349 12.4915 40.7287 11.93C40.4224 11.3685 40.0055 10.9346 39.478 10.6284C38.9506 10.3221 38.355 10.169 37.6914 10.169C37.0278 10.169 36.4323 10.3221 35.9048 10.6284C35.3773 10.9346 34.952 11.3685 34.6287 11.93C34.3224 12.4915 34.1693 13.1722 34.1693 13.9719C34.1693 14.7546 34.3224 15.4352 34.6287 16.0137C34.952 16.5752 35.3773 17.0091 35.9048 17.3154C36.4323 17.6217 37.0278 17.7748 37.6914 17.7748Z" fill="white"/>
<path d="M52.5518 21.0417C50.9354 21.0417 49.6762 20.6334 48.7744 19.8166C47.8726 18.9829 47.4217 17.7493 47.4217 16.1158V4.06896H51.4033V16.0648C51.4033 16.6433 51.5564 17.0942 51.8627 17.4175C52.169 17.7238 52.5859 17.8769 53.1133 17.8769C53.7429 17.8769 54.2789 17.7067 54.7213 17.3664L55.7933 20.174C55.3849 20.4632 54.8914 20.6844 54.3129 20.8376C53.7514 20.9737 53.1644 21.0417 52.5518 21.0417ZM45.3033 10.4752V7.41247H54.8234V10.4752H45.3033Z" fill="white"/>
<path d="M57.083 20.8376V1.89951H61.0646V20.8376H57.083Z" fill="white"/>
<path d="M63.8145 20.8376V7.1062H67.7961V20.8376H63.8145ZM65.8053 5.19198C65.0737 5.19198 64.4781 4.97928 64.0187 4.5539C63.5593 4.12852 63.3296 3.60104 63.3296 2.97148C63.3296 2.34191 63.5593 1.81443 64.0187 1.38905C64.4781 0.963668 65.0737 0.750977 65.8053 0.750977C66.537 0.750977 67.1325 0.955161 67.592 1.36353C68.0514 1.75488 68.2811 2.26534 68.2811 2.89491C68.2811 3.5585 68.0514 4.1115 67.592 4.5539C67.1496 4.97928 66.554 5.19198 65.8053 5.19198Z" fill="white"/>
<path d="M77.0034 25.9932C75.7102 25.9932 74.4596 25.8316 73.2515 25.5083C72.0604 25.202 71.0651 24.7341 70.2653 24.1045L71.8478 21.2459C72.4263 21.7224 73.1579 22.0967 74.0427 22.3689C74.9445 22.6582 75.8293 22.8028 76.6971 22.8028C78.1094 22.8028 79.1303 22.488 79.7599 21.8585C80.4065 21.2289 80.7298 20.2931 80.7298 19.051V16.9836L80.985 13.538L80.9339 10.0669V7.1062H84.7113V18.5405C84.7113 21.0928 84.0477 22.973 82.7205 24.1811C81.3933 25.3892 79.4876 25.9932 77.0034 25.9932ZM76.3908 20.174C75.1147 20.174 73.9577 19.9017 72.9197 19.3572C71.8988 18.7957 71.0736 18.0215 70.444 17.0346C69.8314 16.0307 69.5252 14.8652 69.5252 13.538C69.5252 12.1938 69.8314 11.0282 70.444 10.0413C71.0736 9.03744 71.8988 8.26324 72.9197 7.71875C73.9577 7.17426 75.1147 6.90202 76.3908 6.90202C77.5479 6.90202 78.5688 7.14023 79.4536 7.61666C80.3384 8.07607 81.0275 8.79922 81.521 9.78611C82.0144 10.756 82.2611 12.0066 82.2611 13.538C82.2611 15.0524 82.0144 16.303 81.521 17.2899C81.0275 18.2597 80.3384 18.9829 79.4536 19.4593C78.5688 19.9357 77.5479 20.174 76.3908 20.174ZM77.1821 16.907C77.8797 16.907 78.5008 16.7709 79.0452 16.4987C79.5897 16.2094 80.0151 15.8095 80.3214 15.2991C80.6277 14.7886 80.7808 14.2016 80.7808 13.538C80.7808 12.8574 80.6277 12.2703 80.3214 11.7769C80.0151 11.2664 79.5897 10.8751 79.0452 10.6028C78.5008 10.3136 77.8797 10.169 77.1821 10.169C76.4844 10.169 75.8634 10.3136 75.3189 10.6028C74.7744 10.8751 74.3405 11.2664 74.0172 11.7769C73.7109 12.2703 73.5578 12.8574 73.5578 13.538C73.5578 14.2016 73.7109 14.7886 74.0172 15.2991C74.3405 15.8095 74.7744 16.2094 75.3189 16.4987C75.8634 16.7709 76.4844 16.907 77.1821 16.907Z" fill="white"/>
<path d="M95.8179 6.90202C96.9069 6.90202 97.8767 7.12321 98.7275 7.56561C99.5953 7.99099 100.276 8.65459 100.769 9.5564C101.263 10.4412 101.509 11.5812 101.509 12.9765V20.8376H97.5279V13.589C97.5279 12.483 97.2812 11.6663 96.7878 11.1388C96.3113 10.6114 95.6307 10.3476 94.7459 10.3476C94.1163 10.3476 93.5463 10.4837 93.0359 10.756C92.5424 11.0112 92.1511 11.4111 91.8618 11.9556C91.5896 12.5001 91.4534 13.1977 91.4534 14.0484V20.8376H87.4719V1.89951H91.4534V10.9091L90.5601 9.76059C91.0536 8.84176 91.7597 8.13562 92.6786 7.64218C93.5974 7.14874 94.6438 6.90202 95.8179 6.90202Z" fill="white"/>
<path d="M109.788 21.0417C108.172 21.0417 106.913 20.6334 106.011 19.8166C105.109 18.9829 104.658 17.7493 104.658 16.1158V4.06896H108.64V16.0648C108.64 16.6433 108.793 17.0942 109.099 17.4175C109.406 17.7238 109.822 17.8769 110.35 17.8769C110.979 17.8769 111.515 17.7067 111.958 17.3664L113.03 20.174C112.621 20.4632 112.128 20.6844 111.549 20.8376C110.988 20.9737 110.401 21.0417 109.788 21.0417ZM102.54 10.4752V7.41247H112.06V10.4752H102.54Z" fill="white"/>
<path d="M115.187 20.9652C114.813 20.9652 114.49 20.8291 114.217 20.5568C113.962 20.2846 113.835 19.9528 113.835 19.5614C113.835 19.153 113.962 18.8212 114.217 18.566C114.49 18.3108 114.813 18.1832 115.187 18.1832C115.562 18.1832 115.876 18.3108 116.132 18.566C116.404 18.8212 116.54 19.153 116.54 19.5614C116.54 19.9528 116.404 20.2846 116.132 20.5568C115.876 20.8291 115.562 20.9652 115.187 20.9652Z" fill="white"/>
</svg>
